<svg xmlns="http://www.w3.org/2000/svg" width="37.813" height="11.848" viewBox="0 0 37.813 11.848"><g transform="translate(24.016 10.848) rotate(180)" fill="#141414" stroke-linecap="round" stroke-linejoin="round"><path d="M 24.83774757385254 10.34772205352783 L 23.0155086517334 10.34772205352783 L -12.79687213897705 10.34772205352783 L -13.02488231658936 9.402742385864258 L 6.193587779998779 -0.4449780285358429 L 6.43931770324707 -0.5708979964256287 L 6.676777839660645 -0.4299780130386353 L 23.27068710327148 9.417741775512695 L 24.83774757385254 10.34772205352783 Z" stroke="none"/><path d="M 6.421597480773926 1.9073486328125e-06 L -12.79687309265137 9.847722053527832 L 23.01550674438477 9.847722053527832 L 6.421597480773926 1.9073486328125e-06 M 6.421562194824219 -0.9999990463256836 C 6.598440170288086 -0.9999990463256836 6.774962425231934 -0.9531278610229492 6.931947708129883 -0.8599681854248047 L 23.52585792541504 8.987751960754395 C 23.91316795349121 9.217601776123047 24.09903717041016 9.67800235748291 23.97986793518066 10.11233234405518 C 23.86068725585938 10.54665184020996 23.46588897705078 10.84772205352783 23.01550674438477 10.84772205352783 L -12.79687309265137 10.84772205352783 C -13.25880241394043 10.84772205352783 -13.66062164306641 10.53132247924805 -13.76897239685059 10.08228206634521 C -13.87732315063477 9.633232116699219 -13.66400146484375 9.168412208557129 -13.25290298461914 8.957752227783203 L 5.965567588806152 -0.8899679183959961 C 6.108986377716064 -0.9634542465209961 6.265416145324707 -0.9999990463256836 6.421562194824219 -0.9999990463256836 Z" stroke="none" fill="#fff"/></g></svg>