<svg xmlns="http://www.w3.org/2000/svg" width="363.99" height="97.738" viewBox="0 0 363.99 97.738"><path d="M118.387,110.242a49.122,49.122,0,0,0-.382-6.106l-21.7-.006a27.57,27.57,0,0,1,0,12.227h9.342a36.662,36.662,0,0,1-62.095,19.81L34.92,144.8a48.91,48.91,0,0,0,83.093-28.454,47.832,47.832,0,0,0,.382-5.923h0A1.246,1.246,0,0,1,118.387,110.242Z" transform="translate(-20.555 -61.374)" fill="#231f20"/><path d="M21.379,48.97a27.7,27.7,0,0,1,.686-6.112H12.723A36.662,36.662,0,0,1,74.818,23.044l8.631-8.631A48.91,48.91,0,0,0,.352,55.1h21.7a27.759,27.759,0,0,1-.674-6.132Z" transform="translate(0.03 -0.102)" fill="#231f20"/><path d="M83.919,59.5A24.455,24.455,0,1,0,101.1,101.332L92.472,92.7A12.219,12.219,0,0,1,73.34,90.079h34.27A24.459,24.459,0,0,0,83.919,59.5ZM73.332,77.843a12.223,12.223,0,0,1,21.175,0Z" transform="translate(-34.998 -35.087)" fill="#231f20"/><path d="M270.94,105.386a14.385,14.385,0,0,0,7.706,2.556c2.466,0,4.246-1.06,4.246-3.354,0-2.737-2.6-3.115-5.82-4.073-3.461-1.064-6.712-2.639-6.712-7.057,0-4.484,3.354-7.188,8.356-7.188a15.311,15.311,0,0,1,7.361,1.813v4.385a14.447,14.447,0,0,0-7.4-2.33c-2.326,0-3.97.925-3.97,3.013,0,2.639,2.6,2.98,5.581,3.9,3.662,1.13,6.95,2.741,6.95,7.3,0,4.657-3.494,7.464-8.631,7.464a17.028,17.028,0,0,1-7.673-1.882Z" transform="translate(-159.228 -50.855)" fill="#231f20"/><path d="M326.651,105.62a8.8,8.8,0,1,1-9.141,8.787A8.805,8.805,0,0,1,326.651,105.62Zm0,13.974a5.173,5.173,0,1,0-5-5.187,4.984,4.984,0,0,0,5,5.187Z" transform="translate(-186.999 -62.252)" fill="#231f20"/><path d="M383.1,121.953a11.2,11.2,0,0,1-5.273,1.266c-5.409,0-9.313-3.7-9.313-8.734,0-5.273,4.246-8.865,9.519-8.865a10.9,10.9,0,0,1,4.8,1.093v4.04a8.812,8.812,0,0,0-4.727-1.541,5.139,5.139,0,0,0-5.409,5.24c0,3.013,2.26,5.138,5.479,5.138a8.08,8.08,0,0,0,4.932-1.677Z" transform="translate(-217.038 -62.252)" fill="#231f20"/><path d="M415.162,86.7a2.589,2.589,0,1,1-1.839.754,2.569,2.569,0,0,1,1.839-.754Zm-2.088,8.15h4.143V111.7h-4.143Z" transform="translate(-242.983 -51.108)" fill="#231f20"/><path d="M443.69,121.635a8.093,8.093,0,0,1-4.986,1.611,6.576,6.576,0,0,1-3.9-1.13,4.644,4.644,0,0,1-1.882-3.868,4.755,4.755,0,0,1,2.158-4.077,8.516,8.516,0,0,1,4.722-1.163,14.2,14.2,0,0,1,3.255.374v-1a2.984,2.984,0,0,0-.822-2.293,4.185,4.185,0,0,0-2.84-.822,9.548,9.548,0,0,0-5.072,1.5v-3.732A11.681,11.681,0,0,1,440,105.668a8.481,8.481,0,0,1,5.413,1.574,5.516,5.516,0,0,1,1.78,4.484V118.2c0,.925.341,1.574,1.163,1.574a2.191,2.191,0,0,0,.925-.238v3.251a4.932,4.932,0,0,1-2.055.411,4.176,4.176,0,0,1-3.457-1.541Zm-.649-5.557a10.822,10.822,0,0,0-2.6-.345c-1.714,0-3.391.551-3.391,2.195,0,1.369,1.2,2.018,2.672,2.018a5.96,5.96,0,0,0,3.321-1.028Z" transform="translate(-254.973 -62.279)" fill="#231f20"/><path d="M480.12,83.87h4.143v26.16H480.12Z" transform="translate(-282.776 -49.441)" fill="#231f20"/><path d="M502.28,87.2h14.8v3.872H506.628v6.165H515.7v3.7h-9.075v7.193h10.785V112H502.28Z" transform="translate(-295.828 -51.402)" fill="#231f20"/><path d="M557.632,122.019a8.121,8.121,0,0,1-4.311,1.2c-4.521,0-8.22-3.424-8.22-8.631a8.631,8.631,0,0,1,8.9-8.968,9.8,9.8,0,0,1,4.385,1.028l3.457-.617v24.344H557.7v-8.319Zm.07-11.948a7.863,7.863,0,0,0-3.526-.925c-3.05,0-4.9,2.363-4.9,5.306s1.817,5.3,4.825,5.3a6.165,6.165,0,0,0,3.6-1.163Z" transform="translate(-321.049 -62.252)" fill="#231f20"/><path d="M609.051,121.495a7.92,7.92,0,0,1-5.479,2.261,5.976,5.976,0,0,1-4.484-1.78c-1.027-1.13-1.508-2.672-1.508-5.1V106.53h4.147v9.646a4.344,4.344,0,0,0,.752,2.98,2.8,2.8,0,0,0,2.224.921,6.12,6.12,0,0,0,4.385-2.191V106.53h4.143v16.851h-4.11v-1.862Z" transform="translate(-351.959 -62.788)" fill="#231f20"/><path d="M648.922,86.7a2.589,2.589,0,1,1-1.839.754A2.569,2.569,0,0,1,648.922,86.7Zm-2.088,8.15h4.143V111.7h-4.143Z" transform="translate(-380.667 -51.108)" fill="#231f20"/><path d="M677.319,115.509a7.4,7.4,0,0,1-3.424.789,5.4,5.4,0,0,1-4.11-1.644c-.859-.925-1.373-2.33-1.373-4.829V102.6H665.47V99.073h2.943V94.589l4.143-.719v5.2h4.764V102.6H672.56v6.646c0,1.882.345,3.457,2.228,3.457a5.573,5.573,0,0,0,2.532-.719Z" transform="translate(-391.946 -55.331)" fill="#231f20"/><path d="M700.54,130.9l4.5-9.391-6.95-15h4.484l2.3,5.207c.855,1.952,1.541,3.526,2.26,5.306h.066c.789-1.882,1.644-3.8,2.466-5.651l2.191-4.862h4.213l-11.2,24.381Z" transform="translate(-411.159 -62.776)" fill="#231f20"/><path d="M744.462,135.44a2.672,2.672,0,1,1-2.672,2.672A2.672,2.672,0,0,1,744.462,135.44Z" transform="translate(-436.898 -79.816)" fill="#231f20"/><path d="M772,105.62a8.806,8.806,0,1,1-9.145,8.8A8.794,8.794,0,0,1,772,105.62Zm0,13.974a5.173,5.173,0,1,0-5-5.187,4.98,4.98,0,0,0,5,5.187Z" transform="translate(-449.308 -62.252)" fill="#231f20"/><path d="M816.51,106.288h4.11v2.363l.07.033a5.894,5.894,0,0,1,4.9-2.565,4.254,4.254,0,0,1,1.13.136v3.97a5.343,5.343,0,0,0-1.369-.169,5.52,5.52,0,0,0-4.694,2.5v10.579H816.51Z" transform="translate(-480.908 -62.546)" fill="#231f20"/><path d="M847.564,125.409a10.213,10.213,0,0,0,5.413,1.714c2.877,0,4.759-1.611,4.759-4.451v-1.064l-.07-.066a7.612,7.612,0,0,1-4.279,1.233,8,8,0,0,1-8.047-8.323,8.476,8.476,0,0,1,8.73-8.832,9.346,9.346,0,0,1,4.246.978l3.563-.617v16.646c0,5.1-3.494,8.117-8.767,8.117a12.742,12.742,0,0,1-5.549-1.233ZM857.736,110.1a7.3,7.3,0,0,0-3.461-.892c-3.013,0-4.759,2.3-4.759,5.035,0,2.91,1.882,5.068,4.759,5.068a6.189,6.189,0,0,0,3.461-1.06Z" transform="translate(-497.889 -62.251)" fill="#231f20"/></svg>