<svg xmlns="http://www.w3.org/2000/svg" width="15.32" height="15.32" viewBox="0 0 15.32 15.32"><path d="M7.66,12.448A6.224,6.224,0,1,0,1.436,6.224,6.223,6.223,0,0,0,7.66,12.448ZM7,2.914v-.5a.5.5,0,0,1,.5-.5h.332a.5.5,0,0,1,.5.5V2.92a2.359,2.359,0,0,1,1.287.461.335.335,0,0,1,.036.512l-.488.464a.337.337,0,0,1-.419.03A.985.985,0,0,0,8.2,4.234H7.041a.52.52,0,0,0-.488.548.541.541,0,0,0,.362.527l1.864.56a1.875,1.875,0,0,1,1.308,1.8A1.845,1.845,0,0,1,8.318,9.533v.5a.5.5,0,0,1-.5.5H7.489a.5.5,0,0,1-.5-.5V9.527a2.359,2.359,0,0,1-1.287-.461.335.335,0,0,1-.036-.512l.488-.464a.337.337,0,0,1,.419-.03.985.985,0,0,0,.533.153H8.273a.52.52,0,0,0,.488-.548A.541.541,0,0,0,8.4,7.139L6.535,6.58a1.875,1.875,0,0,1-1.308-1.8A1.847,1.847,0,0,1,7,2.914Zm7.367,7.618H13.39a7.252,7.252,0,0,1-2.184,1.915h1.909a.267.267,0,0,1,.287.239v.479a.267.267,0,0,1-.287.239H2.2a.267.267,0,0,1-.287-.239v-.479a.267.267,0,0,1,.287-.239H4.111a7.288,7.288,0,0,1-2.184-1.915H.957A.956.956,0,0,0,0,11.49v2.873a.956.956,0,0,0,.957.957H14.363a.956.956,0,0,0,.957-.957V11.49A.956.956,0,0,0,14.363,10.533Z" fill="#131313"/></svg>