<svg xmlns="http://www.w3.org/2000/svg" width="17.235" height="15.32" viewBox="0 0 17.235 15.32"><path d="M8.237,7.494a.521.521,0,0,0,.763,0l3.258-3.417A2.48,2.48,0,0,0,12.091.523a2.274,2.274,0,0,0-3.139.23l-.335.35L8.285.756A2.272,2.272,0,0,0,5.146.523a2.483,2.483,0,0,0-.168,3.555Zm8.677,2.322a.99.99,0,0,0-1.275,0l-2.765,2.211a1.9,1.9,0,0,1-1.2.419H8.138a.479.479,0,1,1,0-.957h2.343a1,1,0,0,0,1-.8.959.959,0,0,0-.945-1.119H5.745a3.521,3.521,0,0,0-2.217.787L2.136,11.489H.479A.48.48,0,0,0,0,11.967V14.84a.48.48,0,0,0,.479.479H11.154a1.917,1.917,0,0,0,1.2-.419l4.524-3.62A.957.957,0,0,0,16.914,9.816Z" transform="translate(0 0.002)" fill="#131313"/></svg>