<svg xmlns="http://www.w3.org/2000/svg" width="73.172" height="73.096" viewBox="0 0 73.172 73.096"><g transform="translate(0.03 -0.102)"><g transform="translate(-0.03 0.102)"><path d="M97.343,108.7a36.736,36.736,0,0,0-.285-4.566l-16.23,0a20.619,20.619,0,0,1,0,9.145h6.987A27.418,27.418,0,0,1,41.375,128.09l-6.455,6.455a36.578,36.578,0,0,0,62.143-21.28,35.771,35.771,0,0,0,.286-4.429h0A.93.93,0,0,1,97.343,108.7Z" transform="translate(-24.177 -72.154)" fill="#fff"/><path d="M15.981,36.649a20.714,20.714,0,0,1,.513-4.571H9.508A27.418,27.418,0,0,1,55.947,17.26L62.4,10.8A36.578,36.578,0,0,0,.256,41.235h16.23a20.761,20.761,0,0,1-.5-4.586Z" transform="translate(0.03 -0.102)" fill="#fff"/><path d="M77.748,59.5A18.289,18.289,0,1,0,90.6,90.785L84.144,84.33a9.138,9.138,0,0,1-14.309-1.961H95.465A18.292,18.292,0,0,0,77.748,59.5ZM69.829,73.218a9.142,9.142,0,0,1,15.836,0Z" transform="translate(-41.16 -41.242)" fill="#fff"/></g></g></svg>