<svg xmlns="http://www.w3.org/2000/svg" viewBox="0 0 238 238"><defs><style>.cls-1{fill:#231f20;}</style></defs><g id="Layer_2" data-name="Layer 2"><g id="Layer_1-2" data-name="Layer 1"><path class="cls-1" d="M238,119a119.57,119.57,0,0,0-.93-14.87h-52.8a67.08,67.08,0,0,1,0,29.75H207a89.2,89.2,0,0,1-151.08,48.2l-21,21a119,119,0,0,0,202.17-69.23,116.38,116.38,0,0,0,.93-14.41h0C238,119.31,238,119.16,238,119Z"/><path class="cls-1" d="M52.06,119a67.39,67.39,0,0,1,1.67-14.87H31A89.2,89.2,0,0,1,182.08,55.92l21-21a119,119,0,0,0-202.18,99h52.8A67.54,67.54,0,0,1,52.06,119Z"/><path class="cls-1" d="M119,59.5a59.5,59.5,0,1,0,41.81,101.78l-21-21a29.73,29.73,0,0,1-46.55-6.38h83.38A59.51,59.51,0,0,0,119,59.5ZM93.24,104.13a29.74,29.74,0,0,1,51.52,0Z"/></g></g></svg>