<svg xmlns="http://www.w3.org/2000/svg" viewBox="0 0 885.58 238"><defs><style>.cls-1{fill:#fff;}</style></defs><g id="Layer_2" data-name="Layer 2"><g id="Layer_1-2" data-name="Layer 1"><path class="cls-1" d="M238,119a119.57,119.57,0,0,0-.93-14.87h-52.8a67.08,67.08,0,0,1,0,29.75H207a89.2,89.2,0,0,1-151.08,48.2l-21,21a119,119,0,0,0,202.17-69.23,116.38,116.38,0,0,0,.93-14.41h0C238,119.31,238,119.16,238,119Z"/><path class="cls-1" d="M52.06,119a67.39,67.39,0,0,1,1.67-14.87H31A89.2,89.2,0,0,1,182.08,55.92l21-21a119,119,0,0,0-202.18,99h52.8A67.54,67.54,0,0,1,52.06,119Z"/><path class="cls-1" d="M119,59.5a59.5,59.5,0,1,0,41.81,101.78l-21-21a29.73,29.73,0,0,1-46.55-6.38h83.38A59.51,59.51,0,0,0,119,59.5ZM93.24,104.13a29.74,29.74,0,0,1,51.52,0Z"/><path class="cls-1" d="M271.77,132.78A35,35,0,0,0,290.52,139c6,0,10.33-2.58,10.33-8.16,0-6.66-6.33-7.58-14.16-9.91-8.42-2.59-16.33-6.42-16.33-17.17,0-10.91,8.16-17.49,20.33-17.49,5.83,0,12.83,1.41,17.91,4.41v10.67a35.15,35.15,0,0,0-18-5.67c-5.66,0-9.66,2.25-9.66,7.33,0,6.42,6.33,7.25,13.58,9.5,8.91,2.75,16.91,6.67,16.91,17.75,0,11.33-8.5,18.16-21,18.16a41.43,41.43,0,0,1-18.67-4.58Z"/><path class="cls-1" d="M339.75,105.62C352.5,105.62,362,115,362,127s-9.5,21.41-22.25,21.41-22.24-9.33-22.24-21.41S327,105.62,339.75,105.62Zm0,34c7,0,12.17-5.5,12.17-12.58s-5.17-12.58-12.17-12.58S327.59,120,327.59,127,332.76,139.61,339.75,139.61Z"/><path class="cls-1" d="M404,145.36a27.24,27.24,0,0,1-12.83,3.08c-13.16,0-22.66-9-22.66-21.25,0-12.83,10.33-21.57,23.16-21.57a26.53,26.53,0,0,1,11.67,2.66v9.83a21.44,21.44,0,0,0-11.5-3.75c-7.91,0-13.16,5.59-13.16,12.75,0,7.33,5.5,12.5,13.33,12.5a19.66,19.66,0,0,0,12-4.08Z"/><path class="cls-1" d="M418.89,86.7A6.25,6.25,0,1,1,412.56,93,6.3,6.3,0,0,1,418.89,86.7Zm-5.08,19.83h10.08v41H413.81Z"/><path class="cls-1" d="M459.13,144.52A19.69,19.69,0,0,1,447,148.44a16,16,0,0,1-9.5-2.75,11.3,11.3,0,0,1-4.58-9.41,11.57,11.57,0,0,1,5.25-9.92c3.08-2.08,7.25-2.83,11.49-2.83a34.54,34.54,0,0,1,7.92.91V122a7.26,7.26,0,0,0-2-5.58c-1.5-1.34-3.83-2-6.91-2a23.23,23.23,0,0,0-12.34,3.66V109a28.42,28.42,0,0,1,13.83-3.33c5.34,0,10.09,1.25,13.17,3.83,2.75,2.33,4.33,5.83,4.33,10.91v15.75c0,2.25.83,3.83,2.83,3.83a5.33,5.33,0,0,0,2.25-.58v7.91a12,12,0,0,1-5,1,10.16,10.16,0,0,1-8.41-3.75ZM457.55,131a26.33,26.33,0,0,0-6.33-.84c-4.17,0-8.25,1.34-8.25,5.34,0,3.33,2.92,4.91,6.5,4.91a14.5,14.5,0,0,0,8.08-2.5Z"/><path class="cls-1" d="M480.12,83.87H490.2v63.65H480.12Z"/><path class="cls-1" d="M502.28,87.2h36v9.42H512.86v15h22.08v9H512.86v17.5H539.1v9.41H502.28Z"/><path class="cls-1" d="M575.59,145.52a19.76,19.76,0,0,1-10.49,2.92c-11,0-20-8.33-20-21,0-12.91,9.33-21.82,21.66-21.82a23.85,23.85,0,0,1,10.67,2.5l8.41-1.5v59.23H575.76V145.61Zm.17-29.07a19.13,19.13,0,0,0-8.58-2.25c-7.42,0-11.92,5.75-11.92,12.91S559.68,140,567,140a15,15,0,0,0,8.75-2.83Z"/><path class="cls-1" d="M625.49,142.94a19.27,19.27,0,0,1-13.33,5.5,14.54,14.54,0,0,1-10.91-4.33c-2.5-2.75-3.67-6.5-3.67-12.42V106.53h10.09V130c0,3.66.58,5.83,1.83,7.25a6.8,6.8,0,0,0,5.41,2.24c4,0,7.92-2.24,10.67-5.33V106.53h10.08v41h-10V143Z"/><path class="cls-1" d="M652.65,86.7A6.25,6.25,0,1,1,646.32,93,6.3,6.3,0,0,1,652.65,86.7Zm-5.08,19.83h10.08v41H647.57Z"/><path class="cls-1" d="M694.3,146.52a18,18,0,0,1-8.33,1.92c-3.58,0-7.41-1.08-10-4-2.09-2.25-3.34-5.67-3.34-11.75V115.11h-7.16v-8.58h7.16V95.62l10.08-1.75v12.66H694.3v8.58H682.72v16.17c0,4.58.84,8.41,5.42,8.41a13.56,13.56,0,0,0,6.16-1.75Z"/><path class="cls-1" d="M704.05,165.85,715,143l-16.91-36.49H709l5.59,12.67c2.08,4.75,3.75,8.58,5.5,12.91h.16c1.92-4.58,4-9.25,6-13.75l5.33-11.83h10.25l-27.24,59.32Z"/><path class="cls-1" d="M748.29,135.44a6.5,6.5,0,1,1-6.5,6.5A6.5,6.5,0,0,1,748.29,135.44Z"/><path class="cls-1" d="M785.11,105.62c12.74,0,22.24,9.33,22.24,21.41s-9.5,21.41-22.24,21.41-22.25-9.33-22.25-21.41S772.36,105.62,785.11,105.62Zm0,34c7,0,12.16-5.5,12.16-12.58s-5.16-12.58-12.16-12.58S772.94,120,772.94,127,778.11,139.61,785.11,139.61Z"/><path class="cls-1" d="M816.51,106.53h10v5.75l.17.08a14.34,14.34,0,0,1,11.91-6.24,10.35,10.35,0,0,1,2.75.33v9.66a13,13,0,0,0-3.33-.41,13.43,13.43,0,0,0-11.42,6.08v25.74H816.51Z"/><path class="cls-1" d="M850.75,153.77a24.85,24.85,0,0,0,13.17,4.17c7,0,11.58-3.92,11.58-10.83v-2.59l-.17-.16a18.52,18.52,0,0,1-10.41,3c-10.58,0-19.58-8.09-19.58-20.25,0-11.83,8.25-21.49,21.24-21.49A22.74,22.74,0,0,1,876.91,108l8.67-1.5V147c0,12.42-8.5,19.75-21.33,19.75a31,31,0,0,1-13.5-3Zm24.75-37.24a17.76,17.76,0,0,0-8.42-2.17c-7.33,0-11.58,5.59-11.58,12.25,0,7.08,4.58,12.33,11.58,12.33a15.06,15.06,0,0,0,8.42-2.58Z"/></g></g></svg>