<svg xmlns="http://www.w3.org/2000/svg" width="19.5" height="15.321" viewBox="0 0 19.5 15.321"><g transform="translate(-2.25 -5.625)"><path d="M26.248,10.083l-1.005,1a3.541,3.541,0,0,1,0,5.014L26.248,17.1a4.965,4.965,0,0,0,0-7.021Z" transform="translate(-8.759 -1.698)" fill="#141414"/><path d="M29.5,6.961l-.988.988a6.3,6.3,0,0,1,0,8.906l.988.988a7.692,7.692,0,0,0,0-10.882Z" transform="translate(-10.004 -0.509)" fill="#141414"/><path d="M14.786,10.156V5.625H13.393L9.214,9.107H3.643L2.25,9.8v4.875l1.393.7,3.482,5.571H9.214L7.908,15.375H9.214l4.179,2.786h1.393V13.63a1.649,1.649,0,0,0,1.393-1.737A1.649,1.649,0,0,0,14.786,10.156Z" fill="#141414"/></g></svg>