<svg xmlns="http://www.w3.org/2000/svg" xmlns:xlink="http://www.w3.org/1999/xlink" width="147" height="27.444" viewBox="0 0 147 27.444"><defs><clipPath id="b"><use xlink:href="#a"/></clipPath></defs><g transform="translate(-1261 -876.5)"><g transform="translate(1380 875)"><path d="M29.833,6.667A3.667,3.667,0,1,1,26.167,3a3.667,3.667,0,0,1,3.667,3.667Z" transform="translate(-3.333 0)" fill="none" stroke="#fff" stroke-linecap="round" stroke-linejoin="round" stroke-width="3"/><path d="M11.833,17.167A3.667,3.667,0,1,1,8.167,13.5,3.667,3.667,0,0,1,11.833,17.167Z" transform="translate(0 -1.944)" fill="none" stroke="#fff" stroke-linecap="round" stroke-linejoin="round" stroke-width="3"/><path d="M29.833,27.667A3.667,3.667,0,1,1,26.167,24,3.667,3.667,0,0,1,29.833,27.667Z" transform="translate(-3.333 -3.889)" fill="none" stroke="#fff" stroke-linecap="round" stroke-linejoin="round" stroke-width="3"/><path d="M12.885,20.265l8.348,4.864" transform="translate(-1.553 -3.197)" fill="none" stroke="#fff" stroke-linecap="round" stroke-linejoin="round" stroke-width="3"/><path d="M21.221,9.765l-8.336,4.864" transform="translate(-1.553 -1.253)" fill="none" stroke="#fff" stroke-linecap="round" stroke-linejoin="round" stroke-width="3"/></g><g transform="translate(1261 890)" fill="none" stroke="#fff" stroke-width="5"><rect id="a" width="101" height="1" rx="0.5" stroke="none"/><path d="M0,-1.5h101M98.5,0v1M101,2.5h-101M2.5,1v-1" fill="none" clip-path="url(#b)"/></g></g></svg>